<?xml version="1.0" standalone="no"?>
<!DOCTYPE svg PUBLIC "-//W3C//DTD SVG 20010904//EN"
 "http://www.w3.org/TR/2001/REC-SVG-20010904/DTD/svg10.dtd">
<svg version="1.0" xmlns="http://www.w3.org/2000/svg"
 width="500.000000pt" height="500.000000pt" viewBox="0 0 500.000000 500.000000"
 preserveAspectRatio="xMidYMid meet">

<g transform="translate(0.000000,500.000000) scale(0.100000,-0.100000)"
fill="#000000" stroke="none">
<path d="M3481 3055 c-47 -30 -89 -61 -93 -70 -5 -8 -16 -15 -24 -15 -19 0
-173 -96 -196 -123 -13 -14 -18 -36 -18 -78 l0 -59 -52 22 c-29 12 -69 23 -88
24 -19 2 -26 1 -15 -2 56 -15 134 -47 130 -54 -2 -4 -40 -31 -85 -60 l-80 -52
-42 17 c-24 9 -54 22 -68 27 l-25 10 30 25 30 26 -35 -21 c-56 -33 -57 -39
-21 -153 18 -57 37 -108 42 -113 5 -6 9 -17 9 -25 0 -27 84 -280 91 -275 9 5
115 -42 124 -56 3 -5 15 -40 25 -77 13 -49 15 -70 7 -75 -6 -4 0 -9 16 -13 15
-4 27 -11 27 -15 0 -4 7 -11 16 -14 13 -5 14 -3 7 6 -13 17 -47 147 -40 154 2
3 34 -10 71 -28 l66 -32 25 -82 c14 -45 25 -89 25 -98 0 -9 5 -16 11 -16 6 0
56 -27 111 -60 54 -33 105 -60 113 -60 8 0 24 10 37 23 13 12 16 16 6 8 -10
-8 -20 -12 -22 -10 -4 4 -56 183 -56 193 0 11 162 128 168 121 4 -3 17 -45 28
-93 22 -87 22 -87 20 -33 l-1 55 80 64 c145 116 154 125 180 185 27 62 26 63
-46 10 -26 -18 -49 -33 -52 -33 -3 0 4 23 15 51 16 39 37 64 88 105 37 30 72
54 77 54 5 0 17 16 26 35 20 41 22 61 4 28 -15 -26 -141 -126 -145 -115 -1 5
9 33 22 63 20 43 40 65 95 107 39 28 75 52 80 52 5 0 13 10 16 21 6 18 -7 35
-76 100 -46 43 -99 85 -116 94 -18 9 -33 21 -33 28 0 14 -163 159 -191 169
-10 4 -19 12 -19 17 0 10 -178 171 -189 171 -3 0 -44 -25 -90 -55z m-21 -166
c44 -40 80 -73 80 -75 0 -7 -159 -114 -170 -114 -16 0 -171 143 -167 154 4 12
148 105 164 105 7 1 48 -31 93 -70z m653 -275 c31 -29 57 -55 57 -58 0 -6
-136 -106 -145 -106 -7 0 -185 150 -185 156 0 1 34 28 76 58 l76 56 32 -26
c17 -15 57 -51 89 -80z m-226 -111 c48 -42 89 -81 90 -87 2 -6 -19 -27 -44
-46 -26 -19 -64 -48 -85 -63 l-37 -28 -91 82 c-50 44 -90 85 -88 90 2 6 157
128 165 129 1 0 41 -34 90 -77z m-268 -110 c12 -51 21 -97 21 -102 0 -11 -151
-129 -170 -133 -8 -2 -23 35 -41 101 -16 58 -27 107 -25 109 27 27 182 130
188 124 4 -4 16 -49 27 -99z m-334 6 c68 -29 76 -35 84 -68 23 -84 39 -166 35
-170 -3 -3 -38 11 -79 32 -66 33 -75 40 -84 74 -6 21 -17 61 -26 88 -15 52
-19 75 -10 75 3 0 39 -14 80 -31z m388 -256 c10 -43 20 -88 23 -100 5 -18 -8
-31 -77 -82 -45 -33 -84 -59 -86 -57 -7 7 -54 188 -51 197 4 12 150 118 164
119 6 0 18 -35 27 -77z m159 -135 c-16 -42 -38 -67 -74 -89 -16 -8 -18 -6 -18
20 0 23 10 38 51 70 29 23 53 41 55 41 1 0 -5 -19 -14 -42z"/>
<path d="M807 2792 l-37 -38 0 -147 0 -147 35 0 35 0 0 150 0 150 60 0 60 0 0
-100 0 -100 40 0 40 0 0 100 0 100 55 0 55 0 0 -150 0 -150 40 0 40 0 0 148 0
148 -38 37 -38 37 -155 0 -155 0 -37 -38z"/>
<path d="M1342 2797 l-32 -33 0 -152 0 -152 35 0 35 0 0 150 0 150 60 0 60 0
0 -100 0 -100 35 0 35 0 0 100 0 100 60 0 60 0 0 -150 0 -150 35 0 35 0 0 153
0 153 -33 32 -33 32 -160 0 -160 0 -32 -33z"/>
<path d="M1882 2797 c-25 -26 -32 -42 -32 -73 0 -33 7 -46 38 -77 l38 -37 117
0 117 0 0 -40 0 -40 -155 0 -155 0 0 -35 0 -35 158 0 158 0 32 33 c26 27 32
41 32 78 0 38 -5 50 -33 77 l-33 32 -122 0 -122 0 0 40 0 40 155 0 155 0 0 35
0 35 -158 0 -158 0 -32 -33z"/>
<path d="M2352 2797 l-32 -33 0 -120 0 -120 33 -32 33 -32 122 0 122 0 0 -35
0 -35 -120 0 -120 0 0 -40 0 -40 118 0 118 0 37 38 37 38 0 190 0 190 -33 32
-33 32 -125 0 -125 0 -32 -33z m278 -152 l0 -115 -120 0 -120 0 0 115 0 115
120 0 120 0 0 -115z"/>
<path d="M770 2271 c-24 -23 -30 -38 -30 -71 0 -46 21 -94 45 -104 26 -10 93
-7 100 4 4 6 -9 10 -32 10 -73 0 -108 55 -79 125 16 37 48 52 92 41 19 -5 25
-3 22 6 -3 7 -23 14 -46 16 -36 3 -47 -1 -72 -27z"/>
<path d="M930 2221 c0 -99 20 -131 81 -131 64 0 79 23 79 125 0 50 -4 85 -10
85 -6 0 -10 -33 -10 -79 0 -89 -12 -111 -59 -111 -43 0 -51 16 -51 107 0 67
-3 83 -15 83 -12 0 -15 -15 -15 -79z"/>
<path d="M1150 2195 l0 -105 48 0 c27 0 57 7 70 16 26 18 29 56 6 79 -13 12
-14 19 -5 28 18 18 13 65 -8 77 -11 5 -40 10 -65 10 l-46 0 0 -105z m101 69
c20 -24 -1 -48 -45 -52 -35 -3 -36 -2 -36 32 0 34 2 36 34 36 18 0 39 -7 47
-16z m3 -89 c15 -16 11 -44 -8 -57 -6 -4 -26 -8 -43 -8 -32 0 -33 2 -33 40 0
39 1 40 34 40 19 0 41 -7 50 -15z"/>
<path d="M1340 2195 l0 -105 55 0 c30 0 55 5 55 10 0 6 -20 10 -45 10 l-45 0
0 40 0 40 45 0 c25 0 45 5 45 10 0 6 -20 10 -45 10 -45 0 -45 0 -45 35 0 35 0
35 45 35 25 0 45 5 45 10 0 6 -25 10 -55 10 l-55 0 0 -105z"/>
<path d="M3014 1961 c7 -11 46 -35 46 -28 0 3 -12 12 -26 22 -15 9 -23 12 -20
6z"/>
<path d="M3709 1743 c-13 -16 -12 -17 4 -4 16 13 21 21 13 21 -2 0 -10 -8 -17
-17z"/>
<path d="M3664 1708 l-19 -23 23 19 c12 11 22 21 22 23 0 8 -8 2 -26 -19z"/>
</g>
</svg>
